Title:
Something In The Air Aka Apres Mai

Country:
France/2012

Language:
French

No Subtitle

Director:
Olivier Assayas

Writer:
Olivier Assayas (screenplay)

Stars:
Clément Métayer, Lola Créton, Felix Armand

Synopsis:
In the months after the heady weeks of May '68, a group of young Europeans search for a way to continue the revolution believed to be just beginning. 

Trivia:
Win Gold Lion Best Screenplay in Venice Film Festival

Imdb: 
http://www.imdb.com/title/tt1846472

Trailer: 
http://www.bandes-annonces.fr/film-2012/bande-annonce-apresmai.html


Media Info:

General
Complete name                            : Something.In.The.Air.[Apres.Mai].2012.BRRip.XviD.HORiZON-ArtSubs
Format                                   : AVI
Format/Info                              : Audio Video Interleave
Format profile                           : OpenDML
File size                                : 1.90 GiB
Duration                                 : 2h 1mn
Overall bit rate                         : 2 233 Kbps
Writing application                      : Lavf52.94.0

Video
ID                                       : 0
Format                                   : MPEG-4 Visual
Format profile                           : Simple@L3
Format settings, BVOP                    : No
Format settings, QPel                    : No
Format settings, GMC                     : No warppoints
Format settings, Matrix                  : Default (H.263)
Codec ID                                 : XVID
Codec ID/Hint                            : XviD
Duration                                 : 2h 1mn
Bit rate                                 : 1 998 Kbps
Width                                    : 1 280 pixels
Height                                   : 688 pixels
Display aspect ratio                     : 1.85:1
Frame rate                               : 24.000 fps
Color space                              : YUV
Chroma subsampling                       : 4:2:0
Bit depth                                : 8 bits
Scan type                                : Progressive
Compression mode                         : Lossy
Bits/(Pixel*Frame)                       : 0.095
Stream size                              : 1.70 GiB (89%)
Writing library                          : XviD 1.2.1 (UTC 2008-12-04)

Audio
ID                                       : 1
Format                                   : AC-3
Format/Info                              : Audio Coding 3
Mode extension                           : CM (complete main)
Format settings, Endianness              : Big
Codec ID                                 : 2000
Duration                                 : 2h 1mn
Bit rate mode                            : Constant
Bit rate                                 : 224 Kbps
Channel(s)                               : 2 channels
Channel positions                        : Front: L R
Sampling rate                            : 48.0 KHz
Bit depth                                : 16 bits
Compression mode                         : Lossy
Stream size                              : 195 MiB (10%)
Alignment                                : Aligned on interleaves
Interleave, duration                     : 32 ms (0.77 video frame)
Interleave, preload duration             : 32 ms

